# xmcd
#
# Track frame offsets: 
#        150
#        15689
#        26875
#        40135
#        52990
#        65913
#        78452
#        89177
#        100254
#        115571
#        128883
#        140620
#        151968
#        162332
#        175210
#        186279
#        198326
#        211331
#        222851
#        233326
#        245265
#        261157
#        274005
#        287182
#        297104
#        310176
#        322101
#        333418
#
# Disc length: 4609 seconds
#
# Revision: 0
# Processed by: cddbd v1.5.2PL0 Copyright (c) Steve Scherf et al.
# Submitted via: ExactAudioCopy v0.99pb4
#
DISCID=a211ff1c
DTITLE=Ruby Andrews - Just Loving You
DYEAR=2004
DGENRE=Soul
TTITLE0=Uh Uh Boy That's A No No
TTITLE1=Help Yourself (Lover)
TTITLE2=Whatever It Takes To Please You
TTITLE3=Casanova (Your Playing Days Are Over)
TTITLE4=Can You Get Away
TTITLE5=Since I Found Out
TTITLE6=I Just Don't Believe It
TTITLE7=Tit For Tat
TTITLE8=You Got To Do The Same Thing
TTITLE9=Good 'N Plenty
TTITLE10=Let's Get A Groove Going On
TTITLE11=You Can Run (But You Can't Hide)
TTITLE12=Gotta Break Away
TTITLE13=Just Loving You
TTITLE14=I Let Him Take Me (In His Arms)
TTITLE15=Love I Need
TTITLE16=Everybody Saw You
TTITLE17=Come To Me
TTITLE18=Wonderful Nite
TTITLE19=My Love Is Coming Down
TTITLE20=Away From The Crowd
TTITLE21=Didn't I Fool You
TTITLE22=You Ole Boo Boo You
TTITLE23=All The Way
TTITLE24=I Guess That Don't Make Me A Loser
TTITLE25=You Made A Believer (Out Of Me)
TTITLE26=Where Have You Gone
TTITLE27=Hey Boy (Take A Chance On Love)
EXTD=
EXTT0=
EXTT1=
EXTT2=
EXTT3=
EXTT4=
EXTT5=
EXTT6=
EXTT7=
EXTT8=
EXTT9=
EXTT10=
EXTT11=
EXTT12=
EXTT13=
EXTT14=
EXTT15=
EXTT16=
EXTT17=
EXTT18=
EXTT19=
EXTT20=
EXTT21=
EXTT22=
EXTT23=
EXTT24=
EXTT25=
EXTT26=
EXTT27=
PLAYORDER=
